<svg width="6" height="7" viewBox="0 0 6 7" fill="none" xmlns="http://www.w3.org/2000/svg">
<path d="M2.99844e-06 6.02486V0.591145C2.99844e-06 0.411656 0.0590197 0.268259 0.177054 0.160955C0.295088 0.0536517 0.433119 0 0.591148 0C0.642849 0 0.695038 0.00682833 0.747715 0.0204852C0.800879 0.0336542 0.853311 0.0538957 0.905012 0.0812094L5.17911 2.81233C5.26983 2.87574 5.33812 2.94841 5.38396 3.03035C5.42932 3.11181 5.452 3.20423 5.452 3.30764C5.452 3.41104 5.42932 3.50346 5.38396 3.58492C5.3386 3.66637 5.27032 3.73904 5.17911 3.80294L0.90428 6.53406C0.853067 6.56089 0.800879 6.58113 0.747715 6.59479C0.695038 6.60844 0.642849 6.61527 0.591148 6.61527C0.433607 6.61527 0.295576 6.56162 0.177054 6.45432C0.058532 6.34701 -0.000484745 6.20386 2.99844e-06 6.02486Z" fill="white"/>
</svg>
