<svg width="40" height="40" viewBox="0 0 40 40" fill="none" xmlns="http://www.w3.org/2000/svg">
<path opacity="0.987" fill-rule="evenodd" clip-rule="evenodd" d="M18.0236 2.65236C19.8361 2.44986 20.9086 2.44986 22.8561 2.65236C26.3034 3.1626 29.4991 4.75608 31.9811 7.20236C30.3039 8.7877 28.6487 10.3962 27.0161 12.0274C23.8894 9.37736 20.3994 8.7657 16.5461 10.1924C13.7194 11.4924 11.7511 13.599 10.6411 16.5124C8.82719 15.1619 7.03692 13.7801 5.27109 12.3674C5.14838 12.3028 5.00821 12.2791 4.87109 12.2999C7.67609 6.89153 12.0594 3.67486 18.0211 2.64986" fill="#F44336"/>
<path opacity="0.997" fill-rule="evenodd" clip-rule="evenodd" d="M4.86563 12.3C5.0073 12.2783 5.14146 12.3008 5.26813 12.3675C7.03396 13.7802 8.82423 15.162 10.6381 16.5125C10.3527 17.6476 10.1728 18.8067 10.1006 19.975C10.1623 21.105 10.3415 22.2141 10.6381 23.3025L5.00063 27.79C2.54563 22.66 2.50063 17.4966 4.86563 12.3Z" fill="#FFC107"/>
<path opacity="0.999" fill-rule="evenodd" clip-rule="evenodd" d="M31.7122 33.2248C29.9568 31.6768 28.1192 30.2247 26.2072 28.8748C28.1239 27.5215 29.2872 25.6648 29.6972 23.3048H20.3047V16.7823C25.7214 16.7373 31.1355 16.7832 36.5472 16.9198C37.5739 22.4948 36.388 27.5215 32.9897 31.9998C32.5856 32.4294 32.1576 32.8383 31.7122 33.2248Z" fill="#448AFF"/>
<path opacity="0.993" fill-rule="evenodd" clip-rule="evenodd" d="M10.6375 23.3047C12.6875 28.3997 16.4458 30.778 21.9125 30.4397C23.4471 30.262 24.9184 29.7259 26.2075 28.8747C28.1208 30.228 29.9558 31.678 31.7125 33.2247C28.9291 35.7258 25.3803 37.2099 21.645 37.4347C20.7964 37.5025 19.9436 37.5025 19.095 37.4347C12.7317 36.6847 8.03333 33.4697 5 27.7897L10.6375 23.3047Z" fill="#43A047"/>
</svg>
