<svg width="40" height="40" viewBox="0 0 40 40" fill="none" xmlns="http://www.w3.org/2000/svg">
<path d="M14.974 27.5C14.974 28.328 14.303 29 13.474 29C12.645 29 11.974 28.328 11.974 27.5V13.5C11.974 12.847 12.397 12.269 13.019 12.07C13.644 11.872 14.321 12.1 14.698 12.633L31.475 36.337C36.617 32.709 40 26.735 40 20C40 9 31 0 20 0C9 0 0 9 0 20C0 31 9 40 20 40C23.192 40 26.206 39.223 28.89 37.878L14.974 18.216V27.5ZM24.974 12.5C24.974 11.672 25.645 11 26.474 11C27.303 11 27.974 11.672 27.974 12.5V26.34L24.974 22.113V12.5Z" fill="white"/>
</svg>
