<svg width="5" height="4" viewBox="0 0 5 4" fill="none" xmlns="http://www.w3.org/2000/svg">
<path d="M0.372787 1.94399e-06L3.81321 1.90296e-06C3.92686 1.90161e-06 4.01765 0.0373691 4.08559 0.112104C4.15353 0.186838 4.1875 0.274235 4.1875 0.374293C4.1875 0.407028 4.18318 0.440072 4.17453 0.473425C4.16619 0.507086 4.15338 0.540285 4.13608 0.57302L2.40684 3.27922C2.36669 3.33666 2.32068 3.37989 2.26879 3.40892C2.21722 3.43764 2.1587 3.452 2.09323 3.452C2.02776 3.452 1.96924 3.43764 1.91767 3.40892C1.86609 3.3802 1.82008 3.33697 1.77962 3.27922L0.0503783 0.572556C0.0333929 0.54013 0.020577 0.507086 0.01193 0.473425C0.00328303 0.440072 -0.00104045 0.407028 -0.00104045 0.374293C-0.00104046 0.274544 0.0329294 0.187147 0.10087 0.112104C0.168811 0.0370603 0.25945 -0.000306876 0.372787 1.94399e-06Z" fill="white"/>
</svg>
