<svg width="18" height="18" viewBox="0 0 18 18" fill="none" xmlns="http://www.w3.org/2000/svg">
<path d="M11.25 15.75C11.25 15.75 11.25 14.0475 11.25 13.5C11.25 13.0275 11.3625 12.03 10.875 11.625C11.9175 11.5275 12.735 11.19 13.5 10.5C14.265 9.81 14.625 8.7675 14.625 7.125C14.625 6 14.4375 5.25 13.875 4.5C14.0925 3.915 14.13 3 13.875 2.25C12.705 2.25 11.6475 3.0525 11.25 3.375C10.9575 3.3 10.2525 3 9 3C7.7475 3 7.0425 3.3 6.75 3.375C6.3525 3.0525 5.295 2.25 4.125 2.25C3.87 3 3.9075 3.915 4.125 4.5C3.5625 5.25 3.375 6 3.375 7.125C3.375 8.7675 3.735 9.81 4.5 10.5C5.265 11.19 6.0825 11.5275 7.125 11.625C6.6375 12.03 6.75 13.0275 6.75 13.5C6.75 14.0475 6.75 15.75 6.75 15.75" stroke="white" stroke-linecap="round" stroke-linejoin="round"/>
<path d="M6.75 14.25C5.6925 14.25 4.62 13.83 3.9825 13.3575C3.3525 12.885 3.165 12.1125 2.25 11.625" stroke="white" stroke-linecap="round" stroke-linejoin="round"/>
</svg>
