<svg width="18" height="18" viewBox="0 0 18 18" fill="none" xmlns="http://www.w3.org/2000/svg">
<path d="M16.8443 4.5C16.2668 4.7625 15.6443 4.935 14.9993 5.0175C15.6593 4.62 16.1693 3.99 16.4093 3.2325C15.7868 3.6075 15.0968 3.87 14.3693 4.02C13.7768 3.375 12.9443 3 11.9993 3C10.2368 3 8.7968 4.44 8.7968 6.2175C8.7968 6.4725 8.8268 6.72 8.8793 6.9525C6.2093 6.8175 3.8318 5.535 2.2493 3.5925C1.9718 4.065 1.8143 4.62 1.8143 5.205C1.8143 6.3225 2.3768 7.3125 3.2468 7.875C2.7143 7.875 2.2193 7.725 1.7843 7.5V7.5225C1.7843 9.0825 2.8943 10.3875 4.3643 10.68C3.89243 10.8097 3.39682 10.8277 2.9168 10.7325C3.1205 11.3719 3.51945 11.9313 4.05756 12.3322C4.59567 12.7331 5.24588 12.9553 5.9168 12.9675C4.77955 13.8679 3.3698 14.3545 1.9193 14.3475C1.6643 14.3475 1.4093 14.3325 1.1543 14.3025C2.5793 15.2175 4.2743 15.75 6.0893 15.75C11.9993 15.75 15.2468 10.845 15.2468 6.5925C15.2468 6.45 15.2468 6.315 15.2393 6.1725C15.8693 5.7225 16.4093 5.1525 16.8443 4.5Z" fill="white"/>
</svg>
