<svg width="25" height="25" viewBox="0 0 25 25" fill="none" xmlns="http://www.w3.org/2000/svg">
<path d="M9.35875 17.1875C9.35875 17.705 8.93938 18.125 8.42125 18.125C7.90313 18.125 7.48375 17.705 7.48375 17.1875V8.4375C7.48375 8.02938 7.74812 7.66812 8.13687 7.54375C8.5275 7.42 8.95063 7.5625 9.18625 7.89562L19.6719 22.7106C22.8856 20.4431 25 16.7094 25 12.5C25 5.625 19.375 0 12.5 0C5.625 0 0 5.625 0 12.5C0 19.375 5.625 25 12.5 25C14.495 25 16.3787 24.5144 18.0562 23.6737L9.35875 11.385V17.1875ZM15.6088 7.8125C15.6088 7.295 16.0281 6.875 16.5463 6.875C17.0644 6.875 17.4838 7.295 17.4838 7.8125V16.4625L15.6088 13.8206V7.8125Z" fill="white"/>
</svg>
